<svg xmlns="http://www.w3.org/2000/svg" width="2919" height="531" viewBox="0 0 2919 531" fill="none"><path fill-rule="evenodd" clip-rule="evenodd" d="M704.681 0C728.111 0 748.961 4.66799 767.261 14.003C785.551 23.339 799.561 34.877 809.301 48.617C819.041 62.357 823.911 75.342 823.911 87.57C823.911 94.276 821.541 100.193 816.801 105.321C812.071 110.449 806.341 113.013 799.631 113.013C792.131 113.013 786.501 111.238 782.751 107.688C779.001 104.137 774.821 98.023 770.221 89.345C762.591 75.013 753.601 64.297 743.271 57.197C732.941 50.096 720.211 46.546 705.081 46.546C680.991 46.546 661.811 55.685 647.531 73.961C633.261 92.238 626.121 118.206 626.121 151.867C626.121 174.351 629.281 193.055 635.591 207.979C641.911 222.903 650.861 234.046 662.441 241.409C674.021 248.772 687.571 252.454 703.101 252.454C719.951 252.454 734.191 248.279 745.841 239.93C757.491 231.58 766.271 219.319 772.191 203.147C774.691 195.52 777.781 189.308 781.471 184.508C785.151 179.709 791.081 177.31 799.241 177.31C806.211 177.31 812.201 179.742 817.201 184.607C822.201 189.472 824.701 195.52 824.701 202.752C824.701 211.956 822.431 221.916 817.891 232.633C813.351 243.348 806.211 253.868 796.471 264.189C786.731 274.511 774.301 282.893 759.161 289.336C744.031 295.779 726.401 299 706.261 299C691.001 299 677.111 297.554 664.611 294.661C652.111 291.768 640.761 287.265 630.561 281.151C620.361 275.037 610.981 266.983 602.431 256.99C594.801 247.918 588.281 237.761 582.891 226.518C577.491 215.276 573.441 203.278 570.751 190.524C568.051 177.77 566.701 164.227 566.701 149.894C566.701 126.621 570.091 105.781 576.871 87.373C583.641 68.965 593.351 53.219 605.981 40.136C618.621 27.054 633.421 17.093 650.401 10.256C667.371 3.41901 685.471 0 704.681 0Z" fill="#00154F"></path><path fill-rule="evenodd" clip-rule="evenodd" d="M907.741 0C916.571 0 923.711 2.92601 929.181 8.77701C934.651 14.628 937.381 23.536 937.381 35.502V118.338H1064.02V35.502C1064.02 23.668 1066.69 14.793 1072.02 8.875C1077.36 2.959 1084.37 0 1093.06 0C1101.89 0 1109.03 2.92601 1114.5 8.77701C1119.97 14.628 1122.7 23.536 1122.7 35.502V263.302C1122.7 275.267 1119.93 284.208 1114.4 290.125C1108.87 296.042 1101.76 299 1093.06 299C1084.24 299 1077.19 296.009 1071.92 290.026C1066.66 284.044 1064.02 275.136 1064.02 263.302V166.067H937.381V263.302C937.381 275.267 934.611 284.208 929.081 290.125C923.551 296.042 916.441 299 907.741 299C898.921 299 891.871 296.009 886.601 290.026C881.331 284.044 878.701 275.136 878.701 263.302V35.502C878.701 23.668 881.301 14.793 886.501 8.875C891.711 2.959 898.791 0 907.741 0Z" fill="#00154F"></path><path fill-rule="evenodd" clip-rule="evenodd" d="M1312.15 0C1335.48 0 1356.26 4.66799 1374.48 14.003C1392.7 23.339 1406.66 34.877 1416.36 48.617C1426.06 62.357 1430.91 75.342 1430.91 87.57C1430.91 94.276 1428.55 100.193 1423.83 105.321C1419.12 110.449 1413.41 113.013 1406.73 113.013C1399.26 113.013 1393.65 111.238 1389.92 107.688C1386.18 104.137 1382.02 98.023 1377.43 89.345C1369.83 75.013 1360.88 64.297 1350.59 57.197C1340.3 50.096 1327.62 46.546 1312.54 46.546C1288.55 46.546 1269.44 55.685 1255.22 73.961C1241 92.238 1233.89 118.206 1233.89 151.867C1233.89 174.351 1237.03 193.055 1243.33 207.979C1249.62 222.903 1258.53 234.046 1270.07 241.409C1281.6 248.772 1295.11 252.454 1310.57 252.454C1327.35 252.454 1341.54 248.279 1353.14 239.93C1364.75 231.58 1373.5 219.319 1379.4 203.147C1381.89 195.52 1384.97 189.308 1388.64 184.508C1392.31 179.709 1398.21 177.31 1406.33 177.31C1413.28 177.31 1419.25 179.742 1424.23 184.607C1429.21 189.472 1431.7 195.52 1431.7 202.752C1431.7 211.956 1429.44 221.916 1424.92 232.633C1420.39 243.348 1413.28 253.868 1403.58 264.189C1393.88 274.511 1381.49 282.893 1366.42 289.336C1351.34 295.779 1333.78 299 1313.72 299C1298.51 299 1284.68 297.554 1272.23 294.661C1259.78 291.768 1248.47 287.265 1238.31 281.151C1228.15 275.037 1218.81 266.983 1210.29 256.99C1202.69 247.918 1196.2 237.761 1190.82 226.518C1185.45 215.276 1181.42 203.278 1178.73 190.524C1176.04 177.77 1174.7 164.227 1174.7 149.894C1174.7 126.621 1178.08 105.781 1184.83 87.373C1191.58 68.965 1201.25 53.219 1213.83 40.136C1226.41 27.054 1241.16 17.093 1258.07 10.256C1274.98 3.41901 1293.01 0 1312.15 0Z" fill="#00154F"></path><path fill-rule="evenodd" clip-rule="evenodd" d="M1598.52 0C1606.66 0 1613.46 1.54501 1618.91 4.63501C1624.37 7.72501 1628.77 11.703 1632.12 16.567C1635.47 21.433 1638.29 26.659 1640.59 32.247C1642.89 37.835 1645.81 45.297 1649.36 54.633L1724.83 241.212C1730.74 255.412 1733.7 265.734 1733.7 272.177C1733.7 278.883 1730.91 285.03 1725.33 290.618C1719.74 296.206 1713.01 299 1705.13 299C1700.53 299 1696.59 298.178 1693.3 296.535C1690.02 294.891 1687.26 292.656 1685.03 289.829C1682.79 287.002 1680.4 282.663 1677.83 276.812C1675.27 270.961 1673.07 265.8 1671.23 261.329L1657.44 225.039H1539.99L1526.2 262.118C1520.81 276.582 1516.21 286.345 1512.4 291.407C1508.59 296.469 1502.35 299 1493.68 299C1486.33 299 1479.82 296.305 1474.17 290.914C1468.52 285.523 1465.7 279.409 1465.7 272.572C1465.7 268.627 1466.36 264.551 1467.67 260.343C1468.98 256.135 1471.15 250.284 1474.17 242.79L1548.07 55.027C1550.17 49.636 1552.7 43.161 1555.66 35.6C1558.61 28.04 1561.77 21.761 1565.12 16.765C1568.47 11.768 1572.87 7.72501 1578.32 4.63501C1583.77 1.54501 1590.5 0 1598.52 0ZM1598.12 61.733L1555.36 181.057H1641.67L1598.12 61.733Z" fill="#00154F"></path><path fill-rule="evenodd" clip-rule="evenodd" d="M1811.02 0C1816.28 0 1820.78 0.854995 1824.53 2.564C1828.28 4.273 1831.56 6.57501 1834.39 9.46701C1837.22 12.36 1840.11 16.107 1843.07 20.709C1846.03 25.311 1849.08 30.11 1852.24 35.107L1964.86 205.514V33.529C1964.86 22.353 1967.26 13.97 1972.06 8.383C1976.85 2.794 1983.33 0 1991.48 0C1999.9 0 2006.54 2.794 2011.4 8.383C2016.27 13.97 2018.7 22.353 2018.7 33.529V260.935C2018.7 286.312 2008.18 299 1987.14 299C1981.88 299 1977.15 298.244 1972.94 296.732C1968.73 295.22 1964.79 292.82 1961.11 289.533C1957.43 286.246 1954.01 282.4 1950.85 277.995C1947.7 273.59 1944.54 269.087 1941.39 264.485L1831.53 96.051V265.471C1831.53 276.516 1828.97 284.865 1823.84 290.519C1818.71 296.173 1812.14 299 1804.11 299C1795.83 299 1789.19 296.14 1784.19 290.421C1779.2 284.701 1776.7 276.385 1776.7 265.471V42.404C1776.7 32.938 1777.75 25.508 1779.86 20.118C1782.35 14.201 1786.5 9.369 1792.28 5.621C1798.07 1.874 1804.31 0 1811.02 0Z" fill="#00154F"></path><path fill-rule="evenodd" clip-rule="evenodd" d="M2210.21 0C2240.17 0 2265.89 6.08099 2287.37 18.244C2308.85 30.407 2325.11 47.697 2336.15 70.115C2347.18 92.534 2352.7 118.864 2352.7 149.106C2352.7 171.459 2349.68 191.773 2343.63 210.05C2337.59 228.326 2328.53 244.171 2316.44 257.582C2304.35 270.993 2289.5 281.249 2271.9 288.35C2254.29 295.45 2234.13 299 2211.4 299C2188.8 299 2168.57 295.351 2150.7 288.054C2132.83 280.756 2117.92 270.468 2105.96 257.188C2094.01 243.907 2084.97 227.932 2078.86 209.261C2072.75 190.59 2069.7 170.406 2069.7 148.711C2069.7 126.49 2072.89 106.11 2079.26 87.57C2085.63 69.031 2094.86 53.252 2106.95 40.235C2119.03 27.218 2133.75 17.258 2151.09 10.355C2168.43 3.45201 2188.14 0 2210.21 0ZM2210.21 46.546C2198.52 46.546 2187.71 48.749 2177.8 53.154C2167.88 57.558 2159.34 63.968 2152.18 72.383C2145.02 80.799 2139.37 91.548 2135.23 104.63C2131.09 117.713 2129.02 132.407 2129.02 148.711C2129.02 165.147 2131.09 180.005 2135.23 193.285C2139.37 206.565 2145.21 217.577 2152.77 226.321C2160.32 235.065 2168.99 241.607 2178.78 245.945C2188.57 250.284 2199.31 252.454 2211 252.454C2225.98 252.454 2239.74 248.707 2252.29 241.212C2264.84 233.717 2274.82 222.146 2282.25 206.499C2289.67 190.853 2293.38 171.59 2293.38 148.711C2293.38 127.542 2289.96 109.2 2283.13 93.684C2276.3 78.169 2266.55 66.434 2253.87 58.479C2241.19 50.524 2226.64 46.546 2210.21 46.546Z" fill="#00154F"></path><path fill-rule="evenodd" clip-rule="evenodd" d="M2676.71 0C2684.73 0 2690.8 2.26799 2694.95 6.80499C2699.09 11.341 2705.29 20.38 2713.58 33.924L2767.59 121.691L2822.2 33.924C2825.49 28.533 2828.25 23.997 2830.48 20.315C2832.72 16.633 2835.18 13.182 2837.88 9.95999C2840.57 6.73899 2843.56 4.273 2846.85 2.564C2850.13 0.854995 2854.14 0 2858.87 0C2866.23 0 2872.38 2.40001 2877.31 7.19901C2882.24 11.998 2884.7 17.554 2884.7 23.865C2884.7 28.993 2883.45 34.121 2880.95 39.249C2878.46 44.377 2874.19 51.477 2868.14 60.55L2795.79 171.59V263.302C2795.79 275.267 2793.03 284.208 2787.51 290.125C2781.99 296.042 2774.95 299 2766.41 299C2757.74 299 2750.71 296.074 2745.32 290.223C2739.93 284.372 2737.23 275.398 2737.23 263.302V171.59L2666.65 62.127C2660.48 52.266 2656.11 44.574 2653.54 39.052C2650.98 33.529 2649.7 28.73 2649.7 24.654C2649.7 17.948 2652.3 12.163 2657.49 7.298C2662.68 2.433 2669.09 0 2676.71 0Z" fill="#00154F"></path><path fill-rule="evenodd" clip-rule="evenodd" d="M59.1962 5H244.811C254.911 5 262.411 7.23501 267.331 11.704C272.241 16.173 274.701 22.024 274.701 29.254C274.701 36.483 272.211 42.301 267.231 46.704C262.251 51.108 254.771 53.31 244.811 53.31H181.105V263.31C181.105 275.404 178.418 284.376 173.044 290.225C167.669 296.075 160.722 299 152.201 299C143.549 299 136.504 296.043 131.063 290.127C125.623 284.212 122.903 275.272 122.903 263.31V53.31H59.1962C49.2332 53.31 41.8272 51.108 36.9772 46.704C32.1272 42.301 29.7012 36.483 29.7012 29.254C29.7012 21.76 32.2252 15.845 37.2712 11.507C42.3182 7.16899 49.6262 5 59.1962 5Z" fill="#00154F"></path><path fill-rule="evenodd" clip-rule="evenodd" d="M367.441 5H475.961C490.181 5 501.701 15.074 501.701 27.5C501.701 39.926 490.181 50 475.961 50H367.441C353.221 50 341.701 39.926 341.701 27.5C341.701 15.074 353.221 5 367.441 5Z" fill="#00B050"></path><path fill-rule="evenodd" clip-rule="evenodd" d="M2440.69 5H2515.67C2537.84 5 2554.89 6.70901 2566.83 10.127C2578.64 13.413 2588.84 18.868 2597.43 26.493C2606.02 34.117 2612.55 43.451 2617.01 54.493C2621.47 65.535 2623.7 77.958 2623.7 91.76C2623.7 121.207 2614.65 143.521 2596.54 158.704C2578.44 173.887 2551.48 181.479 2515.67 181.479H2462.14V263.31C2462.14 275.01 2459.39 283.883 2453.88 289.93C2448.37 295.977 2441.42 299 2433.02 299C2424.23 299 2417.15 296.01 2411.77 290.028C2406.39 284.047 2403.7 275.272 2403.7 263.704V40.887C2403.7 28.005 2406.65 18.803 2412.55 13.282C2418.46 7.76001 2427.84 5 2440.69 5ZM2462.14 48.972V137.31H2501.5C2515.27 137.31 2526.79 135.864 2536.03 132.972C2545.28 130.08 2552.33 125.348 2557.19 118.775C2562.04 112.202 2564.47 103.592 2564.47 92.944C2564.47 80.193 2560.73 69.807 2553.25 61.789C2544.86 53.244 2527.61 48.972 2501.5 48.972H2462.14Z" fill="#00154F"></path><path fill-rule="evenodd" clip-rule="evenodd" d="M369.441 121H477.961C492.181 121 503.701 131.298 503.701 144C503.701 156.703 492.181 167 477.961 167H369.441C355.221 167 343.701 156.703 343.701 144C343.701 131.298 355.221 121 369.441 121Z" fill="#00B050"></path><path fill-rule="evenodd" clip-rule="evenodd" d="M367.441 251H475.961C490.181 251 501.701 261.298 501.701 274C501.701 286.703 490.181 297 475.961 297H367.441C353.221 297 341.701 286.703 341.701 274C341.701 261.298 353.221 251 367.441 251Z" fill="#00B050"></path><path fill-rule="evenodd" clip-rule="evenodd" d="M2210.14 93C2219.53 93 2227.85 95.26 2235.1 99.78C2242.35 104.3 2247.93 110.968 2251.84 119.785C2255.75 128.601 2257.7 139.023 2257.7 151.052C2257.7 164.052 2255.58 174.997 2251.33 183.888C2247.09 192.779 2241.38 199.353 2234.2 203.612C2227.02 207.871 2219.15 210 2210.59 210C2203.9 210 2197.76 208.767 2192.16 206.302C2186.56 203.836 2181.6 200.119 2177.28 195.151C2172.96 190.183 2169.62 183.925 2167.25 176.379C2164.88 168.833 2163.7 160.391 2163.7 151.052C2163.7 141.787 2164.88 133.438 2167.25 126.004C2169.62 118.57 2172.85 112.463 2176.94 107.681C2181.04 102.899 2185.92 99.257 2191.6 96.754C2197.27 94.251 2203.45 93 2210.14 93Z" fill="#00B050"></path><path d="M688.938 506.375L709 508.812C709.333 511.146 710.104 512.75 711.312 513.625C712.979 514.875 715.604 515.5 719.188 515.5C723.771 515.5 727.208 514.812 729.5 513.438C731.042 512.521 732.208 511.042 733 509C733.542 507.542 733.812 504.854 733.812 500.938V491.25C728.562 498.417 721.938 502 713.938 502C705.021 502 697.958 498.229 692.75 490.688C688.667 484.729 686.625 477.312 686.625 468.438C686.625 457.312 689.292 448.812 694.625 442.938C700 437.062 706.667 434.125 714.625 434.125C722.833 434.125 729.604 437.729 734.938 444.938V435.625H751.375V495.188C751.375 503.021 750.729 508.875 749.438 512.75C748.146 516.625 746.333 519.667 744 521.875C741.667 524.083 738.542 525.812 734.625 527.062C730.75 528.312 725.833 528.938 719.875 528.938C708.625 528.938 700.646 527 695.938 523.125C691.229 519.292 688.875 514.417 688.875 508.5C688.875 507.917 688.896 507.208 688.938 506.375ZM704.625 467.438C704.625 474.479 705.979 479.646 708.688 482.938C711.438 486.188 714.812 487.812 718.812 487.812C723.104 487.812 726.729 486.146 729.688 482.812C732.646 479.438 734.125 474.458 734.125 467.875C734.125 461 732.708 455.896 729.875 452.562C727.042 449.229 723.458 447.562 719.125 447.562C714.917 447.562 711.438 449.208 708.688 452.5C705.979 455.75 704.625 460.729 704.625 467.438Z" fill="#595959"></path><path d="M672.688 502H655.125V468.125C655.125 460.958 654.75 456.333 654 454.25C653.25 452.125 652.021 450.479 650.312 449.312C648.646 448.146 646.625 447.562 644.25 447.562C641.208 447.562 638.479 448.396 636.062 450.062C633.646 451.729 631.979 453.938 631.062 456.688C630.188 459.438 629.75 464.521 629.75 471.938V502H612.188V435.625H628.5V445.375C634.292 437.875 641.583 434.125 650.375 434.125C654.25 434.125 657.792 434.833 661 436.25C664.208 437.625 666.625 439.396 668.25 441.562C669.917 443.729 671.062 446.188 671.688 448.938C672.354 451.688 672.688 455.625 672.688 460.75V502Z" fill="#595959"></path><path d="M576.688 426.625V410.375H594.25V426.625H576.688ZM576.688 502V435.625H594.25V502H576.688Z" fill="#595959"></path><path d="M543.625 502H526.062V435.625H542.375V445.062C545.167 440.604 547.667 437.667 549.875 436.25C552.125 434.833 554.667 434.125 557.5 434.125C561.5 434.125 565.354 435.229 569.062 437.438L563.625 452.75C560.667 450.833 557.917 449.875 555.375 449.875C552.917 449.875 550.833 450.562 549.125 451.938C547.417 453.271 546.062 455.708 545.062 459.25C544.104 462.792 543.625 470.208 543.625 481.5V502Z" fill="#595959"></path><path d="M494 480.875L511.5 483.812C509.25 490.229 505.688 495.125 500.812 498.5C495.979 501.833 489.917 503.5 482.625 503.5C471.083 503.5 462.542 499.729 457 492.188C452.625 486.146 450.438 478.521 450.438 469.312C450.438 458.312 453.312 449.708 459.062 443.5C464.812 437.25 472.083 434.125 480.875 434.125C490.75 434.125 498.542 437.396 504.25 443.938C509.958 450.438 512.688 460.417 512.438 473.875H468.438C468.562 479.083 469.979 483.146 472.688 486.062C475.396 488.938 478.771 490.375 482.812 490.375C485.562 490.375 487.875 489.625 489.75 488.125C491.625 486.625 493.042 484.208 494 480.875ZM495 463.125C494.875 458.042 493.562 454.188 491.062 451.562C488.562 448.896 485.521 447.562 481.938 447.562C478.104 447.562 474.938 448.958 472.438 451.75C469.938 454.542 468.708 458.333 468.75 463.125H495Z" fill="#595959"></path><path d="M368.312 502L347.312 435.625H364.375L376.812 479.125L388.25 435.625H405.188L416.25 479.125L428.938 435.625H446.25L424.938 502H408.062L396.625 459.312L385.375 502H368.312Z" fill="#595959"></path><path d="M273.625 467.875C273.625 462.042 275.062 456.396 277.938 450.938C280.812 445.479 284.875 441.312 290.125 438.438C295.417 435.562 301.312 434.125 307.812 434.125C317.854 434.125 326.083 437.396 332.5 443.938C338.917 450.438 342.125 458.667 342.125 468.625C342.125 478.667 338.875 487 332.375 493.625C325.917 500.208 317.771 503.5 307.938 503.5C301.854 503.5 296.042 502.125 290.5 499.375C285 496.625 280.812 492.604 277.938 487.312C275.062 481.979 273.625 475.5 273.625 467.875ZM291.625 468.812C291.625 475.396 293.188 480.438 296.312 483.938C299.438 487.438 303.292 489.188 307.875 489.188C312.458 489.188 316.292 487.438 319.375 483.938C322.5 480.438 324.062 475.354 324.062 468.688C324.062 462.188 322.5 457.188 319.375 453.688C316.292 450.188 312.458 448.438 307.875 448.438C303.292 448.438 299.438 450.188 296.312 453.688C293.188 457.188 291.625 462.229 291.625 468.812Z" fill="#595959"></path><path d="M198.938 435.625H215.312V445.375C217.438 442.042 220.312 439.333 223.938 437.25C227.562 435.167 231.583 434.125 236 434.125C243.708 434.125 250.25 437.146 255.625 443.188C261 449.229 263.688 457.646 263.688 468.438C263.688 479.521 260.979 488.146 255.562 494.312C250.146 500.438 243.583 503.5 235.875 503.5C232.208 503.5 228.875 502.771 225.875 501.312C222.917 499.854 219.792 497.354 216.5 493.812V527.25H198.938V435.625ZM216.312 467.688C216.312 475.146 217.792 480.667 220.75 484.25C223.708 487.792 227.312 489.562 231.562 489.562C235.646 489.562 239.042 487.938 241.75 484.688C244.458 481.396 245.812 476.021 245.812 468.562C245.812 461.604 244.417 456.438 241.625 453.062C238.833 449.688 235.375 448 231.25 448C226.958 448 223.396 449.667 220.562 453C217.729 456.292 216.312 461.188 216.312 467.688Z" fill="#595959"></path><path d="M84.25 435.625H100.438V444.688C106.229 437.646 113.125 434.125 121.125 434.125C125.375 434.125 129.062 435 132.188 436.75C135.312 438.5 137.875 441.146 139.875 444.688C142.792 441.146 145.938 438.5 149.312 436.75C152.688 435 156.292 434.125 160.125 434.125C165 434.125 169.125 435.125 172.5 437.125C175.875 439.083 178.396 441.979 180.062 445.812C181.271 448.646 181.875 453.229 181.875 459.562V502H164.312V464.062C164.312 457.479 163.708 453.229 162.5 451.312C160.875 448.812 158.375 447.562 155 447.562C152.542 447.562 150.229 448.312 148.062 449.812C145.896 451.312 144.333 453.521 143.375 456.438C142.417 459.312 141.938 463.875 141.938 470.125V502H124.375V465.625C124.375 459.167 124.062 455 123.438 453.125C122.812 451.25 121.833 449.854 120.5 448.938C119.208 448.021 117.438 447.562 115.188 447.562C112.479 447.562 110.042 448.292 107.875 449.75C105.708 451.208 104.146 453.312 103.188 456.062C102.271 458.812 101.812 463.375 101.812 469.75V502H84.25V435.625Z" fill="#595959"></path><path d="M0.3125 502V410.375H68.25V425.875H18.8125V446.188H64.8125V461.625H18.8125V486.562H70V502H0.3125Z" fill="#595959"></path><path d="M1457.9 483.062L1475.52 480.375C1476.27 483.792 1477.79 486.396 1480.08 488.188C1482.37 489.938 1485.58 490.812 1489.71 490.812C1494.25 490.812 1497.67 489.979 1499.96 488.312C1501.5 487.146 1502.27 485.583 1502.27 483.625C1502.27 482.292 1501.85 481.188 1501.02 480.312C1500.15 479.479 1498.19 478.708 1495.15 478C1480.98 474.875 1472 472.021 1468.21 469.438C1462.96 465.854 1460.33 460.875 1460.33 454.5C1460.33 448.75 1462.6 443.917 1467.15 440C1471.69 436.083 1478.73 434.125 1488.27 434.125C1497.35 434.125 1504.1 435.604 1508.52 438.562C1512.94 441.521 1515.98 445.896 1517.65 451.688L1501.08 454.75C1500.37 452.167 1499.02 450.188 1497.02 448.812C1495.06 447.438 1492.25 446.75 1488.58 446.75C1483.96 446.75 1480.65 447.396 1478.65 448.688C1477.31 449.604 1476.65 450.792 1476.65 452.25C1476.65 453.5 1477.23 454.562 1478.4 455.438C1479.98 456.604 1485.44 458.25 1494.77 460.375C1504.15 462.5 1510.69 465.104 1514.4 468.188C1518.06 471.312 1519.9 475.667 1519.9 481.25C1519.9 487.333 1517.35 492.562 1512.27 496.938C1507.19 501.312 1499.67 503.5 1489.71 503.5C1480.67 503.5 1473.5 501.667 1468.21 498C1462.96 494.333 1459.52 489.354 1457.9 483.062Z" fill="#00B050"></path><path d="M1431.02 502H1413.46V435.625H1429.77V445.062C1432.56 440.604 1435.06 437.667 1437.27 436.25C1439.52 434.833 1442.06 434.125 1444.9 434.125C1448.9 434.125 1452.75 435.229 1456.46 437.438L1451.02 452.75C1448.06 450.833 1445.31 449.875 1442.77 449.875C1440.31 449.875 1438.23 450.562 1436.52 451.938C1434.81 453.271 1433.46 455.708 1432.46 459.25C1431.5 462.792 1431.02 470.208 1431.02 481.5V502Z" fill="#00B050"></path><path d="M1381.4 480.875L1398.9 483.812C1396.65 490.229 1393.08 495.125 1388.21 498.5C1383.37 501.833 1377.31 503.5 1370.02 503.5C1358.48 503.5 1349.94 499.729 1344.4 492.188C1340.02 486.146 1337.83 478.521 1337.83 469.312C1337.83 458.312 1340.71 449.708 1346.46 443.5C1352.21 437.25 1359.48 434.125 1368.27 434.125C1378.15 434.125 1385.94 437.396 1391.65 443.938C1397.35 450.438 1400.08 460.417 1399.83 473.875H1355.83C1355.96 479.083 1357.37 483.146 1360.08 486.062C1362.79 488.938 1366.17 490.375 1370.21 490.375C1372.96 490.375 1375.27 489.625 1377.15 488.125C1379.02 486.625 1380.44 484.208 1381.4 480.875ZM1382.4 463.125C1382.27 458.042 1380.96 454.188 1378.46 451.562C1375.96 448.896 1372.92 447.562 1369.33 447.562C1365.5 447.562 1362.33 448.958 1359.83 451.75C1357.33 454.542 1356.1 458.333 1356.15 463.125H1382.4Z" fill="#00B050"></path><path d="M1227.77 435.625H1243.96V444.688C1249.75 437.646 1256.65 434.125 1264.65 434.125C1268.9 434.125 1272.58 435 1275.71 436.75C1278.83 438.5 1281.4 441.146 1283.4 444.688C1286.31 441.146 1289.46 438.5 1292.83 436.75C1296.21 435 1299.81 434.125 1303.65 434.125C1308.52 434.125 1312.65 435.125 1316.02 437.125C1319.4 439.083 1321.92 441.979 1323.58 445.812C1324.79 448.646 1325.4 453.229 1325.4 459.562V502H1307.83V464.062C1307.83 457.479 1307.23 453.229 1306.02 451.312C1304.4 448.812 1301.9 447.562 1298.52 447.562C1296.06 447.562 1293.75 448.312 1291.58 449.812C1289.42 451.312 1287.85 453.521 1286.9 456.438C1285.94 459.312 1285.46 463.875 1285.46 470.125V502H1267.9V465.625C1267.9 459.167 1267.58 455 1266.96 453.125C1266.33 451.25 1265.35 449.854 1264.02 448.938C1262.73 448.021 1260.96 447.562 1258.71 447.562C1256 447.562 1253.56 448.292 1251.4 449.75C1249.23 451.208 1247.67 453.312 1246.71 456.062C1245.79 458.812 1245.33 463.375 1245.33 469.75V502H1227.77V435.625Z" fill="#00B050"></path><path d="M1146.77 467.875C1146.77 462.042 1148.21 456.396 1151.08 450.938C1153.96 445.479 1158.02 441.312 1163.27 438.438C1168.56 435.562 1174.46 434.125 1180.96 434.125C1191 434.125 1199.23 437.396 1205.65 443.938C1212.06 450.438 1215.27 458.667 1215.27 468.625C1215.27 478.667 1212.02 487 1205.52 493.625C1199.06 500.208 1190.92 503.5 1181.08 503.5C1175 503.5 1169.19 502.125 1163.65 499.375C1158.15 496.625 1153.96 492.604 1151.08 487.312C1148.21 481.979 1146.77 475.5 1146.77 467.875ZM1164.77 468.812C1164.77 475.396 1166.33 480.438 1169.46 483.938C1172.58 487.438 1176.44 489.188 1181.02 489.188C1185.6 489.188 1189.44 487.438 1192.52 483.938C1195.65 480.438 1197.21 475.354 1197.21 468.688C1197.21 462.188 1195.65 457.188 1192.52 453.688C1189.44 450.188 1185.6 448.438 1181.02 448.438C1176.44 448.438 1172.58 450.188 1169.46 453.688C1166.33 457.188 1164.77 462.229 1164.77 468.812Z" fill="#00B050"></path><path d="M1138.65 435.625V449.625H1126.65V476.375C1126.65 481.792 1126.75 484.958 1126.96 485.875C1127.21 486.75 1127.73 487.479 1128.52 488.062C1129.35 488.646 1130.35 488.938 1131.52 488.938C1133.15 488.938 1135.5 488.375 1138.58 487.25L1140.08 500.875C1136 502.625 1131.37 503.5 1126.21 503.5C1123.04 503.5 1120.19 502.979 1117.65 501.938C1115.1 500.854 1113.23 499.479 1112.02 497.812C1110.85 496.104 1110.04 493.812 1109.58 490.938C1109.21 488.896 1109.02 484.771 1109.02 478.562V449.625H1100.96V435.625H1109.02V422.438L1126.65 412.188V435.625H1138.65Z" fill="#00B050"></path><path d="M1030.77 483.062L1048.4 480.375C1049.15 483.792 1050.67 486.396 1052.96 488.188C1055.25 489.938 1058.46 490.812 1062.58 490.812C1067.12 490.812 1070.54 489.979 1072.83 488.312C1074.37 487.146 1075.15 485.583 1075.15 483.625C1075.15 482.292 1074.73 481.188 1073.9 480.312C1073.02 479.479 1071.06 478.708 1068.02 478C1053.85 474.875 1044.87 472.021 1041.08 469.438C1035.83 465.854 1033.21 460.875 1033.21 454.5C1033.21 448.75 1035.48 443.917 1040.02 440C1044.56 436.083 1051.6 434.125 1061.15 434.125C1070.23 434.125 1076.98 435.604 1081.4 438.562C1085.81 441.521 1088.85 445.896 1090.52 451.688L1073.96 454.75C1073.25 452.167 1071.9 450.188 1069.9 448.812C1067.94 447.438 1065.12 446.75 1061.46 446.75C1056.83 446.75 1053.52 447.396 1051.52 448.688C1050.19 449.604 1049.52 450.792 1049.52 452.25C1049.52 453.5 1050.1 454.562 1051.27 455.438C1052.85 456.604 1058.31 458.25 1067.65 460.375C1077.02 462.5 1083.56 465.104 1087.27 468.188C1090.94 471.312 1092.77 475.667 1092.77 481.25C1092.77 487.333 1090.23 492.562 1085.15 496.938C1080.06 501.312 1072.54 503.5 1062.58 503.5C1053.54 503.5 1046.37 501.667 1041.08 498C1035.83 494.333 1032.4 489.354 1030.77 483.062Z" fill="#00B050"></path><path d="M1002.4 502V492.062C999.979 495.604 996.791 498.396 992.833 500.438C988.916 502.479 984.771 503.5 980.396 503.5C975.937 503.5 971.937 502.521 968.396 500.562C964.854 498.604 962.291 495.854 960.708 492.312C959.125 488.771 958.333 483.875 958.333 477.625V435.625H975.896V466.125C975.896 475.458 976.208 481.188 976.833 483.312C977.5 485.396 978.687 487.062 980.396 488.312C982.104 489.521 984.271 490.125 986.896 490.125C989.896 490.125 992.583 489.312 994.958 487.688C997.333 486.021 998.958 483.979 999.833 481.562C1000.71 479.104 1001.15 473.125 1001.15 463.625V435.625H1018.71V502H1002.4Z" fill="#00B050"></path><path d="M924.958 468.312L942.896 474C940.146 484 935.562 491.438 929.146 496.312C922.771 501.146 914.666 503.562 904.833 503.562C892.666 503.562 882.666 499.417 874.833 491.125C867 482.792 863.083 471.417 863.083 457C863.083 441.75 867.021 429.917 874.896 421.5C882.771 413.042 893.125 408.812 905.958 408.812C917.166 408.812 926.271 412.125 933.271 418.75C937.437 422.667 940.562 428.292 942.646 435.625L924.333 440C923.25 435.25 920.979 431.5 917.521 428.75C914.104 426 909.937 424.625 905.021 424.625C898.229 424.625 892.708 427.062 888.458 431.938C884.25 436.812 882.146 444.708 882.146 455.625C882.146 467.208 884.229 475.458 888.396 480.375C892.562 485.292 897.979 487.75 904.646 487.75C909.562 487.75 913.791 486.188 917.333 483.062C920.875 479.938 923.416 475.021 924.958 468.312Z" fill="#00B050"></path><path d="M1586.73 484.438H1604.29V497C1604.29 502.083 1603.86 506.083 1602.98 509C1602.11 511.958 1600.44 514.604 1597.98 516.938C1595.56 519.271 1592.48 521.104 1588.73 522.438L1585.29 515.188C1588.83 514.021 1591.36 512.417 1592.86 510.375C1594.36 508.333 1595.15 505.542 1595.23 502H1586.73V484.438Z" fill="#212121"></path><path d="M2158.83 506.375L2178.9 508.812C2179.23 511.146 2180 512.75 2181.21 513.625C2182.88 514.875 2185.5 515.5 2189.08 515.5C2193.67 515.5 2197.1 514.812 2199.4 513.438C2200.94 512.521 2202.1 511.042 2202.9 509C2203.44 507.542 2203.71 504.854 2203.71 500.938V491.25C2198.46 498.417 2191.83 502 2183.83 502C2174.92 502 2167.85 498.229 2162.65 490.688C2158.56 484.729 2156.52 477.312 2156.52 468.438C2156.52 457.312 2159.19 448.812 2164.52 442.938C2169.9 437.062 2176.56 434.125 2184.52 434.125C2192.73 434.125 2199.5 437.729 2204.83 444.938V435.625H2221.27V495.188C2221.27 503.021 2220.63 508.875 2219.33 512.75C2218.04 516.625 2216.23 519.667 2213.9 521.875C2211.56 524.083 2208.44 525.812 2204.52 527.062C2200.65 528.312 2195.73 528.938 2189.77 528.938C2178.52 528.938 2170.54 527 2165.83 523.125C2161.13 519.292 2158.77 514.417 2158.77 508.5C2158.77 507.917 2158.79 507.208 2158.83 506.375ZM2174.52 467.438C2174.52 474.479 2175.88 479.646 2178.58 482.938C2181.33 486.188 2184.71 487.812 2188.71 487.812C2193 487.812 2196.63 486.146 2199.58 482.812C2202.54 479.438 2204.02 474.458 2204.02 467.875C2204.02 461 2202.6 455.896 2199.77 452.562C2196.94 449.229 2193.35 447.562 2189.02 447.562C2184.81 447.562 2181.33 449.208 2178.58 452.5C2175.88 455.75 2174.52 460.729 2174.52 467.438Z" fill="#595959"></path><path d="M2142.58 502H2125.02V468.125C2125.02 460.958 2124.65 456.333 2123.9 454.25C2123.15 452.125 2121.92 450.479 2120.21 449.312C2118.54 448.146 2116.52 447.562 2114.15 447.562C2111.1 447.562 2108.38 448.396 2105.96 450.062C2103.54 451.729 2101.88 453.938 2100.96 456.688C2100.08 459.438 2099.65 464.521 2099.65 471.938V502H2082.08V435.625H2098.4V445.375C2104.19 437.875 2111.48 434.125 2120.27 434.125C2124.15 434.125 2127.69 434.833 2130.9 436.25C2134.1 437.625 2136.52 439.396 2138.15 441.562C2139.81 443.729 2140.96 446.188 2141.58 448.938C2142.25 451.688 2142.58 455.625 2142.58 460.75V502Z" fill="#595959"></path><path d="M2046.58 426.625V410.375H2064.15V426.625H2046.58ZM2046.58 502V435.625H2064.15V502H2046.58Z" fill="#595959"></path><path d="M2034.4 435.625V449.625H2022.4V476.375C2022.4 481.792 2022.5 484.958 2022.71 485.875C2022.96 486.75 2023.48 487.479 2024.27 488.062C2025.1 488.646 2026.1 488.938 2027.27 488.938C2028.9 488.938 2031.25 488.375 2034.33 487.25L2035.83 500.875C2031.75 502.625 2027.13 503.5 2021.96 503.5C2018.79 503.5 2015.94 502.979 2013.4 501.938C2010.85 500.854 2008.98 499.479 2007.77 497.812C2006.6 496.104 2005.79 493.812 2005.33 490.938C2004.96 488.896 2004.77 484.771 2004.77 478.562V449.625H1996.71V435.625H2004.77V422.438L2022.4 412.188V435.625H2034.4Z" fill="#595959"></path><path d="M1945.83 455.875L1929.9 453C1931.69 446.583 1934.77 441.833 1939.15 438.75C1943.52 435.667 1950.02 434.125 1958.65 434.125C1966.48 434.125 1972.31 435.062 1976.15 436.938C1979.98 438.771 1982.67 441.125 1984.21 444C1985.79 446.833 1986.58 452.062 1986.58 459.688L1986.4 480.188C1986.4 486.021 1986.67 490.333 1987.21 493.125C1987.79 495.875 1988.85 498.833 1990.4 502H1973.02C1972.56 500.833 1972 499.104 1971.33 496.812C1971.04 495.771 1970.83 495.083 1970.71 494.75C1967.71 497.667 1964.5 499.854 1961.08 501.312C1957.67 502.771 1954.02 503.5 1950.15 503.5C1943.31 503.5 1937.92 501.646 1933.96 497.938C1930.04 494.229 1928.08 489.542 1928.08 483.875C1928.08 480.125 1928.98 476.792 1930.77 473.875C1932.56 470.917 1935.06 468.667 1938.27 467.125C1941.52 465.542 1946.19 464.167 1952.27 463C1960.48 461.458 1966.17 460.021 1969.33 458.688V456.938C1969.33 453.562 1968.5 451.167 1966.83 449.75C1965.17 448.292 1962.02 447.562 1957.4 447.562C1954.27 447.562 1951.83 448.188 1950.08 449.438C1948.33 450.646 1946.92 452.792 1945.83 455.875ZM1969.33 470.125C1967.08 470.875 1963.52 471.771 1958.65 472.812C1953.77 473.854 1950.58 474.875 1949.08 475.875C1946.79 477.5 1945.65 479.562 1945.65 482.062C1945.65 484.521 1946.56 486.646 1948.4 488.438C1950.23 490.229 1952.56 491.125 1955.4 491.125C1958.56 491.125 1961.58 490.083 1964.46 488C1966.58 486.417 1967.98 484.479 1968.65 482.188C1969.1 480.688 1969.33 477.833 1969.33 473.625V470.125Z" fill="#595959"></path><path d="M1879.71 502L1852.96 435.625H1871.4L1883.9 469.5L1887.52 480.812C1888.48 477.938 1889.08 476.042 1889.33 475.125C1889.92 473.25 1890.54 471.375 1891.21 469.5L1903.83 435.625H1921.9L1895.52 502H1879.71Z" fill="#595959"></path><path d="M1828.65 480.875L1846.15 483.812C1843.9 490.229 1840.33 495.125 1835.46 498.5C1830.63 501.833 1824.56 503.5 1817.27 503.5C1805.73 503.5 1797.19 499.729 1791.65 492.188C1787.27 486.146 1785.08 478.521 1785.08 469.312C1785.08 458.312 1787.96 449.708 1793.71 443.5C1799.46 437.25 1806.73 434.125 1815.52 434.125C1825.4 434.125 1833.19 437.396 1838.9 443.938C1844.6 450.438 1847.33 460.417 1847.08 473.875H1803.08C1803.21 479.083 1804.63 483.146 1807.33 486.062C1810.04 488.938 1813.42 490.375 1817.46 490.375C1820.21 490.375 1822.52 489.625 1824.4 488.125C1826.27 486.625 1827.69 484.208 1828.65 480.875ZM1829.65 463.125C1829.52 458.042 1828.21 454.188 1825.71 451.562C1823.21 448.896 1820.17 447.562 1816.58 447.562C1812.75 447.562 1809.58 448.958 1807.08 451.75C1804.58 454.542 1803.35 458.333 1803.4 463.125H1829.65Z" fill="#595959"></path><path d="M1754.58 502V410.375H1772.15V502H1754.58Z" fill="#595959"></path><path d="M1669.33 502V410.375H1737.27V425.875H1687.83V446.188H1733.83V461.625H1687.83V486.562H1739.02V502H1669.33Z" fill="#595959"></path><path d="M2773.37 483.062L2790.99 480.375C2791.74 483.792 2793.26 486.396 2795.55 488.188C2797.85 489.938 2801.05 490.812 2805.18 490.812C2809.72 490.812 2813.14 489.979 2815.43 488.312C2816.97 487.146 2817.74 485.583 2817.74 483.625C2817.74 482.292 2817.32 481.188 2816.49 480.312C2815.62 479.479 2813.66 478.708 2810.62 478C2796.45 474.875 2787.47 472.021 2783.68 469.438C2778.43 465.854 2775.8 460.875 2775.8 454.5C2775.8 448.75 2778.07 443.917 2782.62 440C2787.16 436.083 2794.2 434.125 2803.74 434.125C2812.82 434.125 2819.57 435.604 2823.99 438.562C2828.41 441.521 2831.45 445.896 2833.12 451.688L2816.55 454.75C2815.85 452.167 2814.49 450.188 2812.49 448.812C2810.53 447.438 2807.72 446.75 2804.05 446.75C2799.43 446.75 2796.12 447.396 2794.12 448.688C2792.78 449.604 2792.12 450.792 2792.12 452.25C2792.12 453.5 2792.7 454.562 2793.87 455.438C2795.45 456.604 2800.91 458.25 2810.24 460.375C2819.62 462.5 2826.16 465.104 2829.87 468.188C2833.53 471.312 2835.37 475.667 2835.37 481.25C2835.37 487.333 2832.82 492.562 2827.74 496.938C2822.66 501.312 2815.14 503.5 2805.18 503.5C2796.14 503.5 2788.97 501.667 2783.68 498C2778.43 494.333 2774.99 489.354 2773.37 483.062Z" fill="#00B050"></path><path d="M2702.12 483.062L2719.74 480.375C2720.49 483.792 2722.01 486.396 2724.3 488.188C2726.6 489.938 2729.8 490.812 2733.93 490.812C2738.47 490.812 2741.89 489.979 2744.18 488.312C2745.72 487.146 2746.49 485.583 2746.49 483.625C2746.49 482.292 2746.07 481.188 2745.24 480.312C2744.37 479.479 2742.41 478.708 2739.37 478C2725.2 474.875 2716.22 472.021 2712.43 469.438C2707.18 465.854 2704.55 460.875 2704.55 454.5C2704.55 448.75 2706.82 443.917 2711.37 440C2715.91 436.083 2722.95 434.125 2732.49 434.125C2741.57 434.125 2748.32 435.604 2752.74 438.562C2757.16 441.521 2760.2 445.896 2761.87 451.688L2745.3 454.75C2744.6 452.167 2743.24 450.188 2741.24 448.812C2739.28 447.438 2736.47 446.75 2732.8 446.75C2728.18 446.75 2724.87 447.396 2722.87 448.688C2721.53 449.604 2720.87 450.792 2720.87 452.25C2720.87 453.5 2721.45 454.562 2722.62 455.438C2724.2 456.604 2729.66 458.25 2738.99 460.375C2748.37 462.5 2754.91 465.104 2758.62 468.188C2762.28 471.312 2764.12 475.667 2764.12 481.25C2764.12 487.333 2761.57 492.562 2756.49 496.938C2751.41 501.312 2743.89 503.5 2733.93 503.5C2724.89 503.5 2717.72 501.667 2712.43 498C2707.18 494.333 2703.74 489.354 2702.12 483.062Z" fill="#00B050"></path><path d="M2675.49 480.875L2692.99 483.812C2690.74 490.229 2687.18 495.125 2682.3 498.5C2677.47 501.833 2671.41 503.5 2664.12 503.5C2652.57 503.5 2644.03 499.729 2638.49 492.188C2634.12 486.146 2631.93 478.521 2631.93 469.312C2631.93 458.312 2634.8 449.708 2640.55 443.5C2646.3 437.25 2653.57 434.125 2662.37 434.125C2672.24 434.125 2680.03 437.396 2685.74 443.938C2691.45 450.438 2694.18 460.417 2693.93 473.875H2649.93C2650.05 479.083 2651.47 483.146 2654.18 486.062C2656.89 488.938 2660.26 490.375 2664.3 490.375C2667.05 490.375 2669.37 489.625 2671.24 488.125C2673.12 486.625 2674.53 484.208 2675.49 480.875ZM2676.49 463.125C2676.37 458.042 2675.05 454.188 2672.55 451.562C2670.05 448.896 2667.01 447.562 2663.43 447.562C2659.6 447.562 2656.43 448.958 2653.93 451.75C2651.43 454.542 2650.2 458.333 2650.24 463.125H2676.49Z" fill="#00B050"></path><path d="M2623.68 455.25L2606.37 458.375C2605.78 454.917 2604.45 452.312 2602.37 450.562C2600.32 448.812 2597.66 447.938 2594.37 447.938C2589.99 447.938 2586.49 449.458 2583.87 452.5C2581.28 455.5 2579.99 460.542 2579.99 467.625C2579.99 475.5 2581.3 481.062 2583.93 484.312C2586.6 487.562 2590.16 489.188 2594.62 489.188C2597.95 489.188 2600.68 488.25 2602.8 486.375C2604.93 484.458 2606.43 481.188 2607.3 476.562L2624.55 479.5C2622.76 487.417 2619.32 493.396 2614.24 497.438C2609.16 501.479 2602.35 503.5 2593.8 503.5C2584.1 503.5 2576.35 500.438 2570.55 494.312C2564.8 488.188 2561.93 479.708 2561.93 468.875C2561.93 457.917 2564.82 449.396 2570.62 443.312C2576.41 437.188 2584.24 434.125 2594.12 434.125C2602.2 434.125 2608.62 435.875 2613.37 439.375C2618.16 442.833 2621.6 448.125 2623.68 455.25Z" fill="#00B050"></path><path d="M2552.43 455.25L2535.12 458.375C2534.53 454.917 2533.2 452.312 2531.12 450.562C2529.07 448.812 2526.41 447.938 2523.12 447.938C2518.74 447.938 2515.24 449.458 2512.62 452.5C2510.03 455.5 2508.74 460.542 2508.74 467.625C2508.74 475.5 2510.05 481.062 2512.68 484.312C2515.35 487.562 2518.91 489.188 2523.37 489.188C2526.7 489.188 2529.43 488.25 2531.55 486.375C2533.68 484.458 2535.18 481.188 2536.05 476.562L2553.3 479.5C2551.51 487.417 2548.07 493.396 2542.99 497.438C2537.91 501.479 2531.1 503.5 2522.55 503.5C2512.85 503.5 2505.1 500.438 2499.3 494.312C2493.55 488.188 2490.68 479.708 2490.68 468.875C2490.68 457.917 2493.57 449.396 2499.37 443.312C2505.16 437.188 2512.99 434.125 2522.87 434.125C2530.95 434.125 2537.37 435.875 2542.12 439.375C2546.91 442.833 2550.35 448.125 2552.43 455.25Z" fill="#00B050"></path><path d="M2459.99 502V492.062C2457.57 495.604 2454.39 498.396 2450.43 500.438C2446.51 502.479 2442.37 503.5 2437.99 503.5C2433.53 503.5 2429.53 502.521 2425.99 500.562C2422.45 498.604 2419.89 495.854 2418.3 492.312C2416.72 488.771 2415.93 483.875 2415.93 477.625V435.625H2433.49V466.125C2433.49 475.458 2433.8 481.188 2434.43 483.312C2435.1 485.396 2436.28 487.062 2437.99 488.312C2439.7 489.521 2441.87 490.125 2444.49 490.125C2447.49 490.125 2450.18 489.312 2452.55 487.688C2454.93 486.021 2456.55 483.979 2457.43 481.562C2458.3 479.104 2458.74 473.125 2458.74 463.625V435.625H2476.3V502H2459.99Z" fill="#00B050"></path><path d="M2326.37 472.188L2344.37 470.438C2345.45 476.479 2347.64 480.917 2350.93 483.75C2354.26 486.583 2358.74 488 2364.37 488C2370.32 488 2374.8 486.75 2377.8 484.25C2380.85 481.708 2382.37 478.75 2382.37 475.375C2382.37 473.208 2381.72 471.375 2380.43 469.875C2379.18 468.333 2376.97 467 2373.8 465.875C2371.64 465.125 2366.7 463.792 2358.99 461.875C2349.07 459.417 2342.12 456.396 2338.12 452.812C2332.49 447.771 2329.68 441.625 2329.68 434.375C2329.68 429.708 2330.99 425.354 2333.62 421.312C2336.28 417.229 2340.1 414.125 2345.05 412C2350.05 409.875 2356.07 408.812 2363.12 408.812C2374.62 408.812 2383.26 411.333 2389.05 416.375C2394.89 421.417 2397.95 428.146 2398.24 436.562L2379.74 437.375C2378.95 432.667 2377.24 429.292 2374.62 427.25C2372.03 425.167 2368.14 424.125 2362.93 424.125C2357.55 424.125 2353.35 425.229 2350.3 427.438C2348.35 428.854 2347.37 430.75 2347.37 433.125C2347.37 435.292 2348.28 437.146 2350.12 438.688C2352.45 440.646 2358.12 442.688 2367.12 444.812C2376.12 446.938 2382.76 449.146 2387.05 451.438C2391.39 453.688 2394.76 456.792 2397.18 460.75C2399.64 464.667 2400.87 469.521 2400.87 475.312C2400.87 480.562 2399.41 485.479 2396.49 490.062C2393.57 494.646 2389.45 498.062 2384.12 500.312C2378.78 502.521 2372.14 503.625 2364.18 503.625C2352.6 503.625 2343.7 500.958 2337.49 495.625C2331.28 490.25 2327.57 482.438 2326.37 472.188Z" fill="#00B050"></path><path d="M2891.36 502V484.438H2908.92V502H2891.36Z" fill="#212121"></path></svg>